<svg xmlns="http://www.w3.org/2000/svg" xmlns:xlink="http://www.w3.org/1999/xlink" id="svg" width="400" height="400" viewBox="0, 0, 400,400 undefined"><g id="svgg"><path id="path0" d="M329.783 31.106 C 328.730 31.748,327.419 33.294,324.720 37.078 C 321.969 40.934,324.406 43.171,327.276 39.423 C 332.207 32.983,333.121 31.164,331.699 30.618 C 330.937 30.326,331.154 30.270,329.783 31.106 M235.192 36.699 C 221.731 39.332,212.174 49.252,209.977 62.871 C 209.405 66.419,209.696 72.592,210.547 74.952 C 210.881 75.878,211.154 76.678,211.154 76.730 C 211.154 76.782,210.452 76.937,209.594 77.074 C 201.480 78.372,196.722 87.326,200.155 94.839 C 201.812 98.464,203.616 100.049,208.056 101.777 C 210.120 102.580,210.156 102.621,210.576 104.661 C 211.657 109.909,215.640 113.077,221.155 113.077 C 228.450 113.077,233.218 105.279,229.870 98.826 C 228.610 96.397,228.748 96.131,230.554 97.509 C 232.010 98.619,234.565 99.135,236.369 98.682 C 237.326 98.442,237.211 98.333,234.753 97.155 C 228.198 94.014,226.969 87.094,232.552 84.761 C 236.514 83.106,238.725 85.339,239.450 91.731 C 239.900 95.700,240.676 96.510,244.038 96.522 C 248.446 96.539,251.561 94.252,253.332 89.700 C 261.134 69.648,274.814 61.001,280.694 72.404 L 281.834 74.615 279.825 74.615 C 276.380 74.615,271.940 77.319,272.882 78.843 C 273.285 79.493,274.428 79.282,276.369 78.197 C 277.652 77.479,278.815 77.152,280.167 77.128 C 282.422 77.089,283.213 76.715,282.975 75.804 C 282.817 75.203,282.945 75.205,284.768 75.835 C 296.503 79.891,309.714 68.234,307.696 55.603 C 304.815 37.565,283.644 30.752,267.174 42.562 C 266.148 43.297,265.226 43.816,265.125 43.714 C 264.815 43.405,267.763 40.358,269.904 38.776 C 271.014 37.955,271.923 37.029,271.923 36.719 C 271.923 34.454,264.512 39.322,262.975 42.596 C 262.418 43.782,262.292 43.718,260.859 41.526 C 259.202 38.992,255.373 36.154,253.612 36.154 C 251.963 36.154,251.939 36.679,253.558 37.341 C 254.889 37.885,258.652 41.226,259.302 42.441 C 259.756 43.290,259.593 43.211,256.890 41.279 C 251.096 37.138,242.368 35.295,235.192 36.699 M299.734 45.755 C 306.300 52.733,307.159 62.399,301.768 68.654 L 300.774 69.808 301.730 67.664 C 305.690 58.786,302.393 47.406,294.231 41.783 C 293.702 41.418,294.188 41.593,295.311 42.172 C 296.460 42.764,298.395 44.331,299.734 45.755 M334.911 48.858 C 332.425 49.277,329.840 50.749,329.685 51.834 C 329.508 53.071,330.514 53.298,332.872 52.555 C 333.983 52.204,336.176 51.755,337.747 51.556 C 341.255 51.111,341.923 50.868,341.923 50.036 C 341.923 48.710,338.852 48.195,334.911 48.858 M181.346 81.028 C 141.955 84.338,105.012 105.827,81.018 139.384 C 79.824 141.055,78.846 142.137,78.846 141.788 C 78.846 139.616,74.216 142.430,72.726 145.507 C 70.575 149.952,74.086 157.334,77.896 156.378 C 79.246 156.039,79.080 155.573,77.246 154.548 C 74.104 152.793,72.876 149.090,74.561 146.458 L 75.372 145.192 75.378 147.057 C 75.394 151.687,80.757 152.824,89.231 149.994 C 93.671 148.511,95.828 148.606,99.053 150.426 C 101.212 151.644,101.439 151.637,100.761 150.369 C 100.427 149.745,100.528 149.594,101.434 149.367 C 102.020 149.221,103.250 148.769,104.167 148.364 C 106.330 147.408,106.324 147.398,106.474 152.492 L 106.603 156.846 104.687 157.256 C 103.634 157.482,99.249 158.721,94.944 160.010 C 77.398 165.260,71.014 164.238,66.847 155.509 C 66.005 153.746,65.159 152.402,64.966 152.521 C 63.670 153.322,65.955 159.146,68.336 161.109 C 74.311 166.034,81.523 166.355,94.724 162.284 C 99.161 160.916,99.231 160.939,99.231 163.785 C 99.231 164.996,99.465 166.889,99.751 167.993 C 100.518 170.948,99.427 170.395,97.694 166.951 C 96.618 164.812,95.860 165.559,96.541 168.087 C 97.563 171.882,101.004 173.429,103.517 171.223 C 108.704 166.668,110.884 150.217,107.255 142.996 C 106.861 142.211,106.538 141.490,106.538 141.394 C 106.538 141.297,108.486 140.101,110.865 138.735 C 142.270 120.716,191.140 110.487,209.978 117.990 C 214.281 119.704,219.249 126.099,219.233 129.904 C 219.227 131.150,219.982 130.188,220.212 128.656 C 220.872 124.258,218.486 119.546,214.231 116.842 C 197.897 106.462,142.144 117.012,108.825 136.788 C 103.974 139.667,100.186 142.668,101.029 142.963 C 101.364 143.081,101.339 143.460,100.933 144.433 C 100.631 145.154,100.385 146.251,100.385 146.870 C 100.385 148.184,99.685 148.591,98.683 147.859 C 97.162 146.746,94.145 146.463,91.111 147.147 C 83.321 148.905,77.940 148.145,80.302 145.621 C 80.918 144.962,82.692 142.692,84.243 140.577 C 97.313 122.752,112.704 108.989,131.084 98.689 C 146.873 89.842,162.348 85.619,184.826 84.024 C 190.117 83.648,195.163 81.699,192.612 81.016 C 191.726 80.779,184.217 80.787,181.346 81.028 M204.467 82.710 C 199.605 88.489,205.232 99.163,213.563 99.962 C 216.205 100.216,216.268 100.243,214.808 100.512 C 204.913 102.332,197.392 90.294,203.838 82.953 C 205.331 81.253,205.868 81.045,204.467 82.710 M279.808 84.009 C 277.454 84.566,277.010 85.877,279.106 86.080 L 280.327 86.198 279.758 87.560 C 279.063 89.224,279.205 91.517,280.037 92.037 C 281.842 93.167,283.846 91.005,283.846 87.927 C 283.846 86.289,283.899 86.205,284.889 86.274 C 286.180 86.363,286.526 85.280,285.551 84.202 C 284.779 83.350,282.862 83.285,279.808 84.009 M281.575 89.733 C 281.072 90.235,281.002 89.679,281.431 88.589 C 281.698 87.910,281.713 87.910,281.852 88.599 C 281.931 88.991,281.806 89.502,281.575 89.733 M283.614 96.250 C 283.756 97.149,284.027 98.750,284.217 99.808 C 284.654 102.242,283.951 103.370,281.402 104.320 C 280.419 104.687,279.615 104.922,279.615 104.843 C 279.615 104.764,279.958 103.945,280.376 103.023 C 281.278 101.034,281.466 97.724,280.637 98.411 C 280.353 98.647,279.358 100.259,278.426 101.993 C 276.509 105.557,273.375 109.231,272.250 109.231 C 271.038 109.231,269.415 108.211,268.929 107.144 C 268.428 106.043,267.137 105.810,266.775 106.755 C 266.418 107.686,267.597 109.585,269.073 110.456 C 270.796 111.473,270.573 111.726,265.814 114.152 C 257.483 118.398,250.154 118.264,239.715 113.675 C 236.307 112.176,235.769 112.059,235.769 112.813 C 235.769 115.080,244.986 118.893,251.844 119.461 C 259.703 120.113,267.947 116.792,275.009 110.131 C 277.297 107.972,277.867 107.642,280.605 106.894 C 285.910 105.444,287.230 103.886,286.538 99.894 C 286.010 96.841,285.457 95.450,284.588 94.985 C 283.461 94.382,283.344 94.534,283.614 96.250 M214.224 104.498 C 215.441 107.248,216.703 108.668,218.911 109.768 C 221.017 110.817,220.806 111.042,218.355 110.361 C 215.657 109.612,213.429 107.075,212.875 104.121 C 212.493 102.085,213.250 102.296,214.224 104.498 M286.986 116.943 C 298.317 127.671,304.846 136.821,307.374 145.515 L 308.251 148.530 307.444 149.922 C 306.451 151.634,306.062 151.791,305.572 150.675 C 304.418 148.048,300.027 150.141,288.247 158.933 C 263.215 177.615,257.834 177.475,253.296 158.023 C 250.726 147.004,246.693 139.921,241.839 137.902 C 238.802 136.639,238.025 137.273,240.446 139.038 C 245.553 142.765,248.424 148.430,251.570 160.991 C 256.808 181.908,261.141 181.980,288.752 161.613 C 297.465 155.186,298.845 154.242,301.436 152.933 L 303.449 151.916 304.790 153.747 C 307.440 157.363,309.612 164.896,309.621 170.505 C 309.630 175.481,310.996 176.956,311.412 172.437 C 311.714 169.168,311.847 168.926,314.265 167.285 C 315.548 166.413,316.646 165.759,316.706 165.831 C 316.765 165.903,317.517 167.692,318.376 169.808 C 328.270 194.163,328.355 231.100,318.577 257.308 C 301.268 303.699,259.883 335.382,209.808 340.576 C 193.065 342.313,188.964 343.693,199.280 344.119 C 216.020 344.811,238.577 339.398,256.559 330.374 C 294.605 311.282,322.072 273.261,328.238 231.154 C 331.614 208.107,328.181 177.938,320.672 164.662 C 319.661 162.873,319.583 162.548,320.100 162.259 C 324.379 159.865,326.720 156.401,326.686 152.513 C 326.632 146.307,321.946 137.661,318.894 138.139 C 318.128 138.259,318.202 138.434,319.839 140.385 C 323.186 144.371,325.470 150.644,324.826 154.078 C 324.484 155.900,322.087 158.457,318.462 160.871 C 316.875 161.927,314.699 163.641,313.626 164.680 L 311.676 166.569 310.996 163.403 C 310.622 161.662,309.954 159.155,309.513 157.833 C 308.507 154.821,308.980 153.481,312.153 150.347 C 314.953 147.582,314.830 146.105,311.402 141.365 C 310.645 140.318,310.102 139.386,310.195 139.293 C 310.529 138.958,313.079 141.211,314.163 142.800 C 315.949 145.417,316.305 146.238,316.524 148.239 C 316.760 150.400,317.466 150.918,318.145 149.428 C 319.865 145.653,310.721 134.347,308.654 137.692 C 308.220 138.394,307.775 138.093,306.805 136.442 C 302.157 128.528,290.315 115.968,284.917 113.229 C 281.660 111.575,282.043 112.263,286.986 116.943 M221.923 122.996 C 221.923 128.174,225.984 134.650,230.570 136.786 C 233.747 138.265,238.275 137.813,238.992 135.944 C 239.454 134.739,239.261 134.521,237.981 134.806 C 232.593 136.006,227.935 132.857,224.425 125.642 C 222.561 121.810,221.923 121.135,221.923 122.996 M311.927 136.536 C 311.591 136.743,312.275 137.392,314.089 138.587 C 318.254 141.331,319.374 142.988,320.761 148.462 C 321.630 151.887,322.527 151.921,322.431 148.525 C 322.269 142.841,315.053 134.604,311.927 136.536 M186.346 140.602 C 176.228 142.195,158.704 147.430,144.231 153.184 C 122.017 162.016,98.849 174.615,104.823 174.615 C 105.990 174.615,107.644 173.803,113.269 170.469 C 124.973 163.530,148.352 153.295,159.555 150.205 C 161.386 149.700,168.250 147.979,174.808 146.381 C 193.107 141.921,200.046 138.446,186.346 140.602 M69.103 145.314 C 65.183 149.657,70.246 161.496,75.215 159.607 C 76.422 159.148,76.156 158.633,74.315 157.864 C 70.697 156.353,68.923 152.020,70.199 147.814 C 71.045 145.025,70.496 143.772,69.103 145.314 M113.830 146.795 C 113.820 148.029,113.557 151.029,113.243 153.462 C 112.289 160.872,112.164 162.692,112.612 162.692 C 112.838 162.692,113.221 161.697,113.464 160.481 C 113.706 159.264,114.053 157.663,114.234 156.923 C 114.981 153.875,115.473 148.232,115.138 146.568 C 114.612 143.959,113.850 144.091,113.830 146.795 M228.820 149.135 C 224.471 155.571,221.479 158.922,208.646 171.731 C 195.572 184.780,191.052 190.332,192.680 191.339 C 193.565 191.886,194.645 190.965,197.534 187.201 C 199.194 185.039,204.809 178.942,210.012 173.654 C 225.601 157.809,230.837 151.247,231.742 146.421 C 232.129 144.359,231.906 144.566,228.820 149.135 M157.804 154.787 C 154.328 156.405,149.168 160.144,142.536 165.851 C 140.863 167.290,139.230 168.423,138.908 168.368 C 138.585 168.314,138.222 168.626,138.102 169.062 C 137.983 169.497,135.375 172.200,132.308 175.067 C 106.759 198.950,78.841 233.758,69.592 253.261 L 67.772 257.098 66.200 252.107 C 59.689 231.433,59.616 205.713,66.004 184.038 C 72.685 161.373,71.454 155.674,64.400 176.610 C 43.496 238.648,69.247 299.759,129.038 330.005 C 145.415 338.289,172.592 345.920,166.420 340.501 C 164.993 339.248,163.799 338.807,154.082 335.944 C 131.696 329.347,119.756 322.494,102.322 306.234 L 99.067 303.199 100.817 301.119 C 103.340 298.120,109.080 290.022,118.631 275.988 C 127.803 262.512,130.650 258.894,137.226 252.364 L 141.623 247.998 146.869 248.493 C 154.858 249.246,165.045 249.104,174.930 248.102 C 179.651 247.623,183.599 247.317,183.704 247.422 C 183.808 247.526,183.108 249.178,182.147 251.091 C 168.931 277.405,164.029 318.676,172.948 328.531 C 173.517 329.160,173.471 329.495,172.353 332.867 C 169.790 340.596,170.452 344.067,175.842 351.174 C 183.170 360.836,183.086 360.393,177.788 361.520 C 166.100 364.006,161.233 366.952,166.346 368.447 C 168.925 369.201,197.898 369.264,202.301 368.525 C 209.512 367.315,208.604 362.389,200.241 357.337 C 193.456 353.239,189.225 345.215,189.690 337.329 L 189.808 335.328 191.736 334.677 C 214.461 327.006,245.527 243.879,234.552 220.110 C 230.549 211.442,214.655 205.770,189.423 204.007 C 183.802 203.614,183.863 203.670,186.149 200.968 C 187.209 199.713,188.077 198.562,188.077 198.410 C 188.077 198.257,188.357 197.852,188.700 197.509 C 189.557 196.652,189.540 196.644,184.320 195.564 C 166.237 191.825,149.688 182.443,141.913 171.524 L 141.207 170.533 145.717 166.806 C 148.197 164.757,151.949 161.803,154.055 160.242 C 161.013 155.085,162.825 152.449,157.804 154.787 M300.385 155.987 C 300.385 156.319,300.800 157.141,301.308 157.814 C 302.387 159.243,304.396 164.782,304.775 167.372 C 305.016 169.019,305.886 170.396,306.375 169.907 C 307.138 169.144,304.495 159.287,302.867 156.827 C 301.889 155.349,300.385 154.840,300.385 155.987 M223.462 166.362 C 223.462 168.801,228.942 185.180,231.699 190.980 C 240.400 209.285,251.425 212.600,273.222 203.465 C 287.328 197.553,304.644 185.241,307.907 178.803 C 309.639 175.384,309.156 175.630,302.829 181.386 C 291.476 191.712,280.682 198.426,268.939 202.465 C 248.978 209.331,239.754 203.378,229.591 177.070 C 225.121 165.497,223.462 162.598,223.462 166.362 M284.561 244.936 C 274.434 253.454,269.993 258.040,270.526 259.428 C 270.714 259.920,271.698 259.125,274.904 255.891 C 277.178 253.597,280.769 250.315,282.885 248.597 C 288.099 244.364,290.000 242.545,290.000 241.790 C 290.000 240.609,289.054 241.156,284.561 244.936 M291.498 254.588 C 291.040 255.207,289.189 256.981,287.384 258.530 C 282.556 262.673,281.863 263.462,283.051 263.462 C 284.197 263.462,293.077 255.070,293.077 253.987 C 293.077 253.124,292.385 253.388,291.498 254.588 M176.824 334.097 C 179.195 335.917,181.161 336.775,184.344 337.379 L 186.923 337.868 186.923 339.642 C 186.923 346.724,192.188 355.869,198.311 359.423 C 206.354 364.091,206.222 366.293,197.903 366.212 C 189.875 366.134,186.913 364.510,183.873 358.523 C 183.407 357.605,181.114 354.335,178.778 351.256 C 173.911 344.844,173.462 343.959,173.462 340.793 C 173.462 338.768,174.513 332.692,174.864 332.692 C 174.935 332.692,175.817 333.324,176.824 334.097 " stroke="none" fill="#ffffff" fill-rule="evenodd"/></g></svg>